<svg xmlns="http://www.w3.org/2000/svg" xmlns:xlink="http://www.w3.org/1999/xlink" viewBox="0,0,256,256" width="30px" height="30px"><g fill="none" fill-rule="nonzero" stroke="none" stroke-width="1" stroke-linecap="butt" stroke-linejoin="miter" stroke-miterlimit="10" stroke-dasharray="" stroke-dashoffset="0" font-family="none" font-weight="none" font-size="none" text-anchor="none" style="mix-blend-mode: normal"><g transform="scale(4,4)"><g><circle cx="23" cy="60" r="4" fill="#000000"></circle><circle cx="23" cy="60" r="2" fill="#ffd67f"></circle><circle cx="39" cy="60" r="4" fill="#000000"></circle><circle cx="39" cy="60" r="2" fill="#ffd67f"></circle><path d="M50,27.24l-2,-0.48l1,-4c0.11282,-0.45718 0.5293,-0.77371 1,-0.76h5v2h-4.22z" fill="#0dcaf0"></path><path d="M49,31.2c0.05796,-0.29416 -0.01912,-0.5988 -0.21,-0.83c-0.19282,-0.23775 -0.48392,-0.37408 -0.79,-0.37h-34c-0.29908,0.00198 -0.58158,0.13772 -0.77,0.37c-0.19088,0.2312 -0.26796,0.53584 -0.21,0.83l4,20c0.09647,0.47312 0.51724,0.80974 1,0.8h24.7l-0.5,2h-24.22c-0.55228,0 -1,0.44772 -1,1c0,0.55228 0.44772,1 1,1h25c0.4707,0.01371 0.88718,-0.30282 1,-0.76l1,-4v0zM43.18,50h-6l1.2,-8h6.42zM36.34,42l-1.2,8h-8.28l-1.2,-8zM25.34,40l-1.2,-8h13.7l-1.2,8zM45.16,40h-6.5l1.2,-8h6.92zM22.16,32l1.2,8h-6.54l-1.6,-8zM17.22,42h6.42l1.2,8h-6z" fill="#0dcaf0"></path><rect x="11" y="26" width="40" height="6" rx="2" ry="0" fill="#000000"></rect><rect x="54" y="21" width="10" height="4" rx="1" ry="0" fill="#000000"></rect><circle cx="18" cy="18" r="18" fill="#ffd67f"></circle><path d="M18,30c0,0 13,-6.82 13,-14c0.03018,-1.60036 -0.59227,-3.14408 -1.72409,-4.27591c-1.13183,-1.13183 -2.67555,-1.75427 -4.27591,-1.72409c-3.43927,0.14268 -6.333,2.62302 -7,6c-0.667,-3.37698 -3.56073,-5.85732 -7,-6c-1.60036,-0.03018 -3.14408,0.59227 -4.27591,1.72409c-1.13183,1.13183 -1.75427,2.67555 -1.72409,4.27591c0,7.18 13,14 13,14z" fill="#0dcaf0"></path><path d="M50,13h-1v-1c0,-0.55228 -0.44772,-1 -1,-1c-0.55228,0 -1,0.44772 -1,1v1h-1c-0.55228,0 -1,0.44772 -1,1c0,0.55228 0.44772,1 1,1h1v1c0,0.55228 0.44772,1 1,1c0.55228,0 1,-0.44772 1,-1v-1h1c0.55228,0 1,-0.44772 1,-1c0,-0.55228 -0.44772,-1 -1,-1z" fill="#0dcaf0"></path><path d="M44,2h-1v-1c0,-0.55228 -0.44772,-1 -1,-1c-0.55228,0 -1,0.44772 -1,1v1h-1c-0.55228,0 -1,0.44772 -1,1c0,0.55228 0.44772,1 1,1h1v1c0,0.55228 0.44772,1 1,1c0.55228,0 1,-0.44772 1,-1v-1h1c0.55228,0 1,-0.44772 1,-1c0,-0.55228 -0.44772,-1 -1,-1z" fill="#0dcaf0"></path><path d="M9,45h-1v-1c0,-0.55228 -0.44772,-1 -1,-1c-0.55228,0 -1,0.44772 -1,1v1h-1c-0.55228,0 -1,0.44772 -1,1c0,0.55228 0.44772,1 1,1h1v1c0,0.55228 0.44772,1 1,1c0.55228,0 1,-0.44772 1,-1v-1h1c0.55228,0 1,-0.44772 1,-1c0,-0.55228 -0.44772,-1 -1,-1z" fill="#0dcaf0"></path></g></g></g></svg>